{
	"asset":{
		"generator":"Khronos glTF Blender I/O v3.6.28",
		"version":"2.0"
	},
	"scene":0,
	"scenes":[
		{
			"name":"Scene",
			"nodes":[
				0,
				1,
				2,
				3,
				4,
				5,
				6,
				7,
				8,
				9,
				10,
				11,
				12,
				13,
				14,
				15
			]
		}
	],
	"nodes":[
		{
			"mesh":0,
			"name":"accesorio_cuerdas_accesorio_cuerdasShape",
			"rotation":[
				0.5067078471183777,
				0.49039551615715027,
				0.5183510780334473,
				0.4838095009326935
			],
			"translation":[
				0.5250275731086731,
				3.9319772720336914,
				0
			]
		},
		{
			"mesh":1,
			"name":"AGUJEROS_CUERDAS_AGUJEROS_CUERDASShape",
			"rotation":[
				0.5067078471183777,
				0.49039551615715027,
				0.5183510780334473,
				0.4838095009326935
			],
			"translation":[
				0.5250275731086731,
				3.9319772720336914,
				0
			]
		},
		{
			"mesh":2,
			"name":"BOTONES_BOTONESShape",
			"rotation":[
				0.5067078471183777,
				0.49039551615715027,
				0.5183510780334473,
				0.4838095009326935
			],
			"translation":[
				0.5250275731086731,
				3.9319772720336914,
				0
			]
		},
		{
			"mesh":3,
			"name":"clavijas_clavijasShape",
			"rotation":[
				0.5067078471183777,
				0.49039551615715027,
				0.5183510780334473,
				0.4838095009326935
			],
			"translation":[
				0.5250275731086731,
				3.9319772720336914,
				0
			]
		},
		{
			"mesh":4,
			"name":"clavijero_clavijeroShape",
			"rotation":[
				0.5067078471183777,
				0.49039551615715027,
				0.5183510780334473,
				0.4838095009326935
			],
			"translation":[
				0.5250275731086731,
				3.9319772720336914,
				0
			]
		},
		{
			"mesh":5,
			"name":"cuerda_plasticGG_cuerda_plasticGGShape",
			"rotation":[
				0.5067078471183777,
				0.49039551615715027,
				0.5183510780334473,
				0.4838095009326935
			],
			"translation":[
				0.5250275731086731,
				3.9319772720336914,
				0
			]
		},
		{
			"mesh":6,
			"name":"CUERDAS_CUERDASShape",
			"rotation":[
				0.5067078471183777,
				0.49039551615715027,
				0.5183510780334473,
				0.4838095009326935
			],
			"translation":[
				0.5250275731086731,
				3.9319772720336914,
				0
			]
		},
		{
			"mesh":7,
			"name":"design_guitar_diseFBXASC195FBXASC177o_guitarShape",
			"rotation":[
				0.5067078471183777,
				0.49039551615715027,
				0.5183510780334473,
				0.4838095009326935
			],
			"translation":[
				0.5250275731086731,
				3.9319772720336914,
				0
			]
		},
		{
			"mesh":8,
			"name":"GUITAR_GUITARShape",
			"rotation":[
				0.5067078471183777,
				0.49039551615715027,
				0.5183510780334473,
				0.4838095009326935
			],
			"translation":[
				0.5250275731086731,
				3.9319772720336914,
				0
			]
		},
		{
			"mesh":9,
			"name":"jack_jackShape",
			"rotation":[
				0.5067078471183777,
				0.49039551615715027,
				0.5183510780334473,
				0.4838095009326935
			],
			"translation":[
				0.5250275731086731,
				3.9319772720336914,
				0
			]
		},
		{
			"mesh":10,
			"name":"marcas_negras_marcas_negrasShape",
			"rotation":[
				0.5067078471183777,
				0.49039551615715027,
				0.5183510780334473,
				0.4838095009326935
			],
			"translation":[
				0.5250275731086731,
				3.9319772720336914,
				0
			]
		},
		{
			"mesh":11,
			"name":"MASTIIL_MASTIILShape",
			"rotation":[
				0.5067078471183777,
				0.49039551615715027,
				0.5183510780334473,
				0.4838095009326935
			],
			"translation":[
				0.5250275731086731,
				3.9319772720336914,
				0
			]
		},
		{
			"mesh":12,
			"name":"MOD_VOLUMEN_MOD_VOLUMENShape",
			"rotation":[
				0.5067078471183777,
				0.49039551615715027,
				0.5183510780334473,
				0.4838095009326935
			],
			"translation":[
				0.5250275731086731,
				3.9319772720336914,
				0
			]
		},
		{
			"mesh":13,
			"name":"pastilas_pastilasShape",
			"rotation":[
				0.5067078471183777,
				0.49039551615715027,
				0.5183510780334473,
				0.4838095009326935
			],
			"translation":[
				0.5250275731086731,
				3.9319772720336914,
				0
			]
		},
		{
			"mesh":14,
			"name":"PUENTE_PUENTEShape",
			"rotation":[
				0.5067078471183777,
				0.49039551615715027,
				0.5183510780334473,
				0.4838095009326935
			],
			"translation":[
				0.5250275731086731,
				3.9319772720336914,
				0
			]
		},
		{
			"mesh":15,
			"name":"SUJETACUERDAS_SUJETACUERDASShape",
			"rotation":[
				0.5067078471183777,
				0.49039551615715027,
				0.5183510780334473,
				0.4838095009326935
			],
			"translation":[
				0.5250275731086731,
				3.9319772720336914,
				0
			]
		}
	],
	"materials":[
		{
			"doubleSided":true,
			"name":"ACCES_CUERDAS",
			"pbrMetallicRoughness":{}
		},
		{
			"doubleSided":true,
			"name":"ENVOL_CUERDAS",
			"pbrMetallicRoughness":{
				"metallicFactor":0,
				"metallicRoughnessTexture":{
					"index":0
				}
			}
		},
		{
			"doubleSided":true,
			"name":"tornillos",
			"pbrMetallicRoughness":{}
		},
		{
			"doubleSided":true,
			"name":"CLAVIJAS",
			"pbrMetallicRoughness":{}
		},
		{
			"doubleSided":true,
			"name":"CLAVIJERO",
			"pbrMetallicRoughness":{}
		},
		{
			"doubleSided":true,
			"name":"cuerdas_transparente",
			"pbrMetallicRoughness":{}
		},
		{
			"doubleSided":true,
			"name":"cuerdas_metal",
			"pbrMetallicRoughness":{}
		},
		{
			"doubleSided":true,
			"name":"design_guitar",
			"pbrMetallicRoughness":{
				"metallicFactor":0,
				"metallicRoughnessTexture":{
					"index":1
				}
			}
		},
		{
			"doubleSided":true,
			"name":"GUITAR",
			"pbrMetallicRoughness":{}
		},
		{
			"doubleSided":true,
			"name":"JACK",
			"pbrMetallicRoughness":{
				"metallicRoughnessTexture":{
					"index":2
				},
				"roughnessFactor":0.79073166847229
			}
		},
		{
			"doubleSided":true,
			"name":"MARC_BLACK",
			"pbrMetallicRoughness":{}
		},
		{
			"doubleSided":true,
			"name":"MASTIL",
			"pbrMetallicRoughness":{}
		},
		{
			"doubleSided":true,
			"name":"VOLUME",
			"pbrMetallicRoughness":{
				"metallicFactor":0,
				"roughnessFactor":0.525658369064331
			}
		},
		{
			"doubleSided":true,
			"name":"pastillas",
			"pbrMetallicRoughness":{
				"metallicFactor":0.09558799862861633,
				"metallicRoughnessTexture":{
					"index":3
				}
			}
		},
		{
			"doubleSided":true,
			"name":"PUENTE",
			"pbrMetallicRoughness":{
				"metallicRoughnessTexture":{
					"index":4
				},
				"roughnessFactor":0.7488779425621033
			}
		},
		{
			"doubleSided":true,
			"name":"SUJ_CUERDAS",
			"pbrMetallicRoughness":{}
		}
	],
	"meshes":[
		{
			"name":"accesorio_cuerdas_accesorio_cuerdasShape",
			"primitives":[
				{
					"attributes":{
						"POSITION":0,
						"NORMAL":1,
						"TEXCOORD_0":2
					},
					"indices":3,
					"material":0
				}
			]
		},
		{
			"name":"AGUJEROS_CUERDAS_AGUJEROS_CUERDASShape",
			"primitives":[
				{
					"attributes":{
						"POSITION":4,
						"NORMAL":5,
						"TEXCOORD_0":6
					},
					"indices":7,
					"material":1
				}
			]
		},
		{
			"name":"BOTONES_BOTONESShape",
			"primitives":[
				{
					"attributes":{
						"POSITION":8,
						"NORMAL":9,
						"TEXCOORD_0":10
					},
					"indices":11,
					"material":2
				}
			]
		},
		{
			"name":"clavijas_clavijasShape",
			"primitives":[
				{
					"attributes":{
						"POSITION":12,
						"NORMAL":13,
						"TEXCOORD_0":14
					},
					"indices":15,
					"material":3
				}
			]
		},
		{
			"name":"clavijero_clavijeroShape",
			"primitives":[
				{
					"attributes":{
						"POSITION":16,
						"NORMAL":17,
						"TEXCOORD_0":18
					},
					"indices":19,
					"material":4
				}
			]
		},
		{
			"name":"cuerda_plasticGG_cuerda_plasticGGShape",
			"primitives":[
				{
					"attributes":{
						"POSITION":20,
						"NORMAL":21,
						"TEXCOORD_0":22
					},
					"indices":23,
					"material":5
				}
			]
		},
		{
			"name":"CUERDAS_CUERDASShape",
			"primitives":[
				{
					"attributes":{
						"POSITION":24,
						"NORMAL":25,
						"TEXCOORD_0":26
					},
					"indices":27,
					"material":6
				}
			]
		},
		{
			"name":"design_guitar_diseFBXASC195FBXASC177o_guitarShape",
			"primitives":[
				{
					"attributes":{
						"POSITION":28,
						"NORMAL":29,
						"TEXCOORD_0":30
					},
					"indices":31,
					"material":7
				}
			]
		},
		{
			"name":"GUITAR_GUITARShape",
			"primitives":[
				{
					"attributes":{
						"POSITION":32,
						"NORMAL":33,
						"TEXCOORD_0":34
					},
					"indices":35,
					"material":8
				}
			]
		},
		{
			"name":"jack_jackShape",
			"primitives":[
				{
					"attributes":{
						"POSITION":36,
						"NORMAL":37,
						"TEXCOORD_0":38
					},
					"indices":39,
					"material":9
				}
			]
		},
		{
			"name":"marcas_negras_marcas_negrasShape",
			"primitives":[
				{
					"attributes":{
						"POSITION":40,
						"NORMAL":41,
						"TEXCOORD_0":42
					},
					"indices":43,
					"material":10
				}
			]
		},
		{
			"name":"MASTIIL_MASTIILShape",
			"primitives":[
				{
					"attributes":{
						"POSITION":44,
						"NORMAL":45,
						"TEXCOORD_0":46
					},
					"indices":47,
					"material":11
				}
			]
		},
		{
			"name":"MOD_VOLUMEN_MOD_VOLUMENShape",
			"primitives":[
				{
					"attributes":{
						"POSITION":48,
						"NORMAL":49,
						"TEXCOORD_0":50
					},
					"indices":51,
					"material":12
				}
			]
		},
		{
			"name":"pastilas_pastilasShape",
			"primitives":[
				{
					"attributes":{
						"POSITION":52,
						"NORMAL":53,
						"TEXCOORD_0":54
					},
					"indices":55,
					"material":13
				}
			]
		},
		{
			"name":"PUENTE_PUENTEShape",
			"primitives":[
				{
					"attributes":{
						"POSITION":56,
						"NORMAL":57,
						"TEXCOORD_0":58
					},
					"indices":59,
					"material":14
				}
			]
		},
		{
			"name":"SUJETACUERDAS_SUJETACUERDASShape",
			"primitives":[
				{
					"attributes":{
						"POSITION":60,
						"NORMAL":61,
						"TEXCOORD_0":62
					},
					"indices":63,
					"material":15
				}
			]
		}
	],
	"textures":[
		{
			"sampler":0,
			"source":0
		},
		{
			"sampler":0,
			"source":0
		},
		{
			"sampler":0,
			"source":0
		},
		{
			"sampler":0,
			"source":0
		},
		{
			"sampler":0,
			"source":0
		}
	],
	"images":[
		{
			"bufferView":8,
			"mimeType":"image/png",
			"name":"Image"
		}
	],
	"accessors":[
		{
			"bufferView":0,
			"componentType":5126,
			"count":668,
			"max":[
				5.612545013427734,
				0.006399999838322401,
				-0.8636969923973083
			],
			"min":[
				5.396255016326904,
				-0.1950960010290146,
				-0.8896700143814087
			],
			"type":"VEC3"
		},
		{
			"bufferView":1,
			"componentType":5126,
			"count":668,
			"type":"VEC3"
		},
		{
			"bufferView":2,
			"componentType":5126,
			"count":668,
			"type":"VEC2"
		},
		{
			"bufferView":3,
			"componentType":5123,
			"count":2784,
			"type":"SCALAR"
		},
		{
			"bufferView":4,
			"componentType":5126,
			"count":1029,
			"max":[
				-2.663800001144409,
				0.5964919924736023,
				-0.8130559921264648
			],
			"min":[
				-2.9858200550079346,
				-0.04781600087881088,
				-0.8655840158462524
			],
			"type":"VEC3"
		},
		{
			"bufferView":5,
			"componentType":5126,
			"count":1029,
			"type":"VEC3"
		},
		{
			"bufferView":6,
			"componentType":5126,
			"count":1029,
			"type":"VEC2"
		},
		{
			"bufferView":7,
			"componentType":5123,
			"count":4032,
			"type":"SCALAR"
		},
		{
			"bufferView":9,
			"componentType":5126,
			"count":744,
			"max":[
				0.11121100187301636,
				1.6460599899291992,
				-0.8136780261993408
			],
			"min":[
				-2.5628468990325928,
				-0.4416719973087311,
				-0.8341400027275085
			],
			"type":"VEC3"
		},
		{
			"bufferView":10,
			"componentType":5126,
			"count":744,
			"type":"VEC3"
		},
		{
			"bufferView":11,
			"componentType":5126,
			"count":744,
			"type":"VEC2"
		},
		{
			"bufferView":12,
			"componentType":5123,
			"count":3840,
			"type":"SCALAR"
		},
		{
			"bufferView":13,
			"componentType":5126,
			"count":7965,
			"max":[
				6.430193901062012,
				0.024596000090241432,
				-0.8387449979782104
			],
			"min":[
				5.050641059875488,
				-0.3746579885482788,
				-0.957260012626648
			],
			"type":"VEC3"
		},
		{
			"bufferView":14,
			"componentType":5126,
			"count":7965,
			"type":"VEC3"
		},
		{
			"bufferView":15,
			"componentType":5126,
			"count":7965,
			"type":"VEC2"
		},
		{
			"bufferView":16,
			"componentType":5123,
			"count":45216,
			"type":"SCALAR"
		},
		{
			"bufferView":17,
			"componentType":5126,
			"count":4144,
			"max":[
				6.489871978759766,
				-0.010703000240027905,
				-0.5981619954109192
			],
			"min":[
				4.986156940460205,
				-0.5744730234146118,
				-0.664680004119873
			],
			"type":"VEC3"
		},
		{
			"bufferView":18,
			"componentType":5126,
			"count":4144,
			"type":"VEC3"
		},
		{
			"bufferView":19,
			"componentType":5126,
			"count":4144,
			"type":"VEC2"
		},
		{
			"bufferView":20,
			"componentType":5123,
			"count":19824,
			"type":"SCALAR"
		},
		{
			"bufferView":21,
			"componentType":5126,
			"count":1420,
			"max":[
				6.3904829025268555,
				0.4879069924354553,
				-0.8379709720611572
			],
			"min":[
				-2.833514928817749,
				-0.16173599660396576,
				-0.8921669721603394
			],
			"type":"VEC3"
		},
		{
			"bufferView":22,
			"componentType":5126,
			"count":1420,
			"type":"VEC3"
		},
		{
			"bufferView":23,
			"componentType":5126,
			"count":1420,
			"type":"VEC2"
		},
		{
			"bufferView":24,
			"componentType":5123,
			"count":7290,
			"type":"SCALAR"
		},
		{
			"bufferView":25,
			"componentType":5126,
			"count":1244,
			"max":[
				5.628501892089844,
				0.18268300592899323,
				-0.8414660096168518
			],
			"min":[
				-2.7576069831848145,
				-0.33331701159477234,
				-0.8857010006904602
			],
			"type":"VEC3"
		},
		{
			"bufferView":26,
			"componentType":5126,
			"count":1244,
			"type":"VEC3"
		},
		{
			"bufferView":27,
			"componentType":5126,
			"count":1244,
			"type":"VEC2"
		},
		{
			"bufferView":28,
			"componentType":5123,
			"count":6498,
			"type":"SCALAR"
		},
		{
			"bufferView":29,
			"componentType":5126,
			"count":2695,
			"max":[
				0.2490759938955307,
				1.8076879978179932,
				-0.771232008934021
			],
			"min":[
				-3.051928997039795,
				-0.5050449967384338,
				-0.8258479833602905
			],
			"type":"VEC3"
		},
		{
			"bufferView":30,
			"componentType":5126,
			"count":2695,
			"type":"VEC3"
		},
		{
			"bufferView":31,
			"componentType":5126,
			"count":2695,
			"type":"VEC2"
		},
		{
			"bufferView":32,
			"componentType":5123,
			"count":15360,
			"type":"SCALAR"
		},
		{
			"bufferView":33,
			"componentType":5126,
			"count":8136,
			"max":[
				0.8369600176811218,
				2.0386719703674316,
				-0.13517099618911743
			],
			"min":[
				-4.210905075073242,
				-1.2285469770431519,
				-0.8452280163764954
			],
			"type":"VEC3"
		},
		{
			"bufferView":34,
			"componentType":5126,
			"count":8136,
			"type":"VEC3"
		},
		{
			"bufferView":35,
			"componentType":5126,
			"count":8136,
			"type":"VEC2"
		},
		{
			"bufferView":36,
			"componentType":5123,
			"count":46320,
			"type":"SCALAR"
		},
		{
			"bufferView":37,
			"componentType":5126,
			"count":2069,
			"max":[
				-2.908099889755249,
				1.588454008102417,
				-0.725803017616272
			],
			"min":[
				-3.566781997680664,
				0.8986120223999023,
				-0.8198689818382263
			],
			"type":"VEC3"
		},
		{
			"bufferView":38,
			"componentType":5126,
			"count":2069,
			"type":"VEC3"
		},
		{
			"bufferView":39,
			"componentType":5126,
			"count":2069,
			"type":"VEC2"
		},
		{
			"bufferView":40,
			"componentType":5123,
			"count":12096,
			"type":"SCALAR"
		},
		{
			"bufferView":41,
			"componentType":5126,
			"count":580,
			"max":[
				4.011438846588135,
				0.15897800028324127,
				-0.8431069850921631
			],
			"min":[
				-0.28030699491500854,
				-0.1998160034418106,
				-0.8568860292434692
			],
			"type":"VEC3"
		},
		{
			"bufferView":42,
			"componentType":5126,
			"count":580,
			"type":"VEC3"
		},
		{
			"bufferView":43,
			"componentType":5126,
			"count":580,
			"type":"VEC2"
		},
		{
			"bufferView":44,
			"componentType":5123,
			"count":2754,
			"type":"SCALAR"
		},
		{
			"bufferView":45,
			"componentType":5126,
			"count":2810,
			"max":[
				6.693515777587891,
				0.46604499220848083,
				-0.5393009781837463
			],
			"min":[
				-0.543878972530365,
				-0.4297119975090027,
				-0.8591330051422119
			],
			"type":"VEC3"
		},
		{
			"bufferView":46,
			"componentType":5126,
			"count":2810,
			"type":"VEC3"
		},
		{
			"bufferView":47,
			"componentType":5126,
			"count":2810,
			"type":"VEC2"
		},
		{
			"bufferView":48,
			"componentType":5123,
			"count":15168,
			"type":"SCALAR"
		},
		{
			"bufferView":49,
			"componentType":5126,
			"count":4278,
			"max":[
				-2.1987578868865967,
				1.7158019542694092,
				-0.8114820122718811
			],
			"min":[
				-2.891716957092285,
				0.7849060297012329,
				-0.9267659783363342
			],
			"type":"VEC3"
		},
		{
			"bufferView":50,
			"componentType":5126,
			"count":4278,
			"type":"VEC3"
		},
		{
			"bufferView":51,
			"componentType":5126,
			"count":4278,
			"type":"VEC2"
		},
		{
			"bufferView":52,
			"componentType":5123,
			"count":25632,
			"type":"SCALAR"
		},
		{
			"bufferView":53,
			"componentType":5126,
			"count":3405,
			"max":[
				-0.8000609874725342,
				0.5676550269126892,
				-0.815563976764679
			],
			"min":[
				-2.1780080795288086,
				-0.1385899931192398,
				-0.8533269762992859
			],
			"type":"VEC3"
		},
		{
			"bufferView":54,
			"componentType":5126,
			"count":3405,
			"type":"VEC3"
		},
		{
			"bufferView":55,
			"componentType":5126,
			"count":3405,
			"type":"VEC2"
		},
		{
			"bufferView":56,
			"componentType":5123,
			"count":19440,
			"type":"SCALAR"
		},
		{
			"bufferView":57,
			"componentType":5126,
			"count":10459,
			"max":[
				-2.587251901626587,
				0.9064469933509827,
				-0.794547975063324
			],
			"min":[
				-2.9430980682373047,
				-0.3759729862213135,
				-0.9371749758720398
			],
			"type":"VEC3"
		},
		{
			"bufferView":58,
			"componentType":5126,
			"count":10459,
			"type":"VEC3"
		},
		{
			"bufferView":59,
			"componentType":5126,
			"count":10459,
			"type":"VEC2"
		},
		{
			"bufferView":60,
			"componentType":5123,
			"count":59856,
			"type":"SCALAR"
		},
		{
			"bufferView":61,
			"componentType":5126,
			"count":2752,
			"max":[
				4.869993209838867,
				0.39694198966026306,
				-0.8427159786224365
			],
			"min":[
				-0.3554680049419403,
				-0.32384398579597473,
				-0.8761829733848572
			],
			"type":"VEC3"
		},
		{
			"bufferView":62,
			"componentType":5126,
			"count":2752,
			"type":"VEC3"
		},
		{
			"bufferView":63,
			"componentType":5126,
			"count":2752,
			"type":"VEC2"
		},
		{
			"bufferView":64,
			"componentType":5123,
			"count":11376,
			"type":"SCALAR"
		}
	],
	"bufferViews":[
		{
			"buffer":0,
			"byteLength":8016,
			"byteOffset":0,
			"target":34962
		},
		{
			"buffer":0,
			"byteLength":8016,
			"byteOffset":8016,
			"target":34962
		},
		{
			"buffer":0,
			"byteLength":5344,
			"byteOffset":16032,
			"target":34962
		},
		{
			"buffer":0,
			"byteLength":5568,
			"byteOffset":21376,
			"target":34963
		},
		{
			"buffer":0,
			"byteLength":12348,
			"byteOffset":26944,
			"target":34962
		},
		{
			"buffer":0,
			"byteLength":12348,
			"byteOffset":39292,
			"target":34962
		},
		{
			"buffer":0,
			"byteLength":8232,
			"byteOffset":51640,
			"target":34962
		},
		{
			"buffer":0,
			"byteLength":8064,
			"byteOffset":59872,
			"target":34963
		},
		{
			"buffer":0,
			"byteLength":243,
			"byteOffset":67936
		},
		{
			"buffer":0,
			"byteLength":8928,
			"byteOffset":68180,
			"target":34962
		},
		{
			"buffer":0,
			"byteLength":8928,
			"byteOffset":77108,
			"target":34962
		},
		{
			"buffer":0,
			"byteLength":5952,
			"byteOffset":86036,
			"target":34962
		},
		{
			"buffer":0,
			"byteLength":7680,
			"byteOffset":91988,
			"target":34963
		},
		{
			"buffer":0,
			"byteLength":95580,
			"byteOffset":99668,
			"target":34962
		},
		{
			"buffer":0,
			"byteLength":95580,
			"byteOffset":195248,
			"target":34962
		},
		{
			"buffer":0,
			"byteLength":63720,
			"byteOffset":290828,
			"target":34962
		},
		{
			"buffer":0,
			"byteLength":90432,
			"byteOffset":354548,
			"target":34963
		},
		{
			"buffer":0,
			"byteLength":49728,
			"byteOffset":444980,
			"target":34962
		},
		{
			"buffer":0,
			"byteLength":49728,
			"byteOffset":494708,
			"target":34962
		},
		{
			"buffer":0,
			"byteLength":33152,
			"byteOffset":544436,
			"target":34962
		},
		{
			"buffer":0,
			"byteLength":39648,
			"byteOffset":577588,
			"target":34963
		},
		{
			"buffer":0,
			"byteLength":17040,
			"byteOffset":617236,
			"target":34962
		},
		{
			"buffer":0,
			"byteLength":17040,
			"byteOffset":634276,
			"target":34962
		},
		{
			"buffer":0,
			"byteLength":11360,
			"byteOffset":651316,
			"target":34962
		},
		{
			"buffer":0,
			"byteLength":14580,
			"byteOffset":662676,
			"target":34963
		},
		{
			"buffer":0,
			"byteLength":14928,
			"byteOffset":677256,
			"target":34962
		},
		{
			"buffer":0,
			"byteLength":14928,
			"byteOffset":692184,
			"target":34962
		},
		{
			"buffer":0,
			"byteLength":9952,
			"byteOffset":707112,
			"target":34962
		},
		{
			"buffer":0,
			"byteLength":12996,
			"byteOffset":717064,
			"target":34963
		},
		{
			"buffer":0,
			"byteLength":32340,
			"byteOffset":730060,
			"target":34962
		},
		{
			"buffer":0,
			"byteLength":32340,
			"byteOffset":762400,
			"target":34962
		},
		{
			"buffer":0,
			"byteLength":21560,
			"byteOffset":794740,
			"target":34962
		},
		{
			"buffer":0,
			"byteLength":30720,
			"byteOffset":816300,
			"target":34963
		},
		{
			"buffer":0,
			"byteLength":97632,
			"byteOffset":847020,
			"target":34962
		},
		{
			"buffer":0,
			"byteLength":97632,
			"byteOffset":944652,
			"target":34962
		},
		{
			"buffer":0,
			"byteLength":65088,
			"byteOffset":1042284,
			"target":34962
		},
		{
			"buffer":0,
			"byteLength":92640,
			"byteOffset":1107372,
			"target":34963
		},
		{
			"buffer":0,
			"byteLength":24828,
			"byteOffset":1200012,
			"target":34962
		},
		{
			"buffer":0,
			"byteLength":24828,
			"byteOffset":1224840,
			"target":34962
		},
		{
			"buffer":0,
			"byteLength":16552,
			"byteOffset":1249668,
			"target":34962
		},
		{
			"buffer":0,
			"byteLength":24192,
			"byteOffset":1266220,
			"target":34963
		},
		{
			"buffer":0,
			"byteLength":6960,
			"byteOffset":1290412,
			"target":34962
		},
		{
			"buffer":0,
			"byteLength":6960,
			"byteOffset":1297372,
			"target":34962
		},
		{
			"buffer":0,
			"byteLength":4640,
			"byteOffset":1304332,
			"target":34962
		},
		{
			"buffer":0,
			"byteLength":5508,
			"byteOffset":1308972,
			"target":34963
		},
		{
			"buffer":0,
			"byteLength":33720,
			"byteOffset":1314480,
			"target":34962
		},
		{
			"buffer":0,
			"byteLength":33720,
			"byteOffset":1348200,
			"target":34962
		},
		{
			"buffer":0,
			"byteLength":22480,
			"byteOffset":1381920,
			"target":34962
		},
		{
			"buffer":0,
			"byteLength":30336,
			"byteOffset":1404400,
			"target":34963
		},
		{
			"buffer":0,
			"byteLength":51336,
			"byteOffset":1434736,
			"target":34962
		},
		{
			"buffer":0,
			"byteLength":51336,
			"byteOffset":1486072,
			"target":34962
		},
		{
			"buffer":0,
			"byteLength":34224,
			"byteOffset":1537408,
			"target":34962
		},
		{
			"buffer":0,
			"byteLength":51264,
			"byteOffset":1571632,
			"target":34963
		},
		{
			"buffer":0,
			"byteLength":40860,
			"byteOffset":1622896,
			"target":34962
		},
		{
			"buffer":0,
			"byteLength":40860,
			"byteOffset":1663756,
			"target":34962
		},
		{
			"buffer":0,
			"byteLength":27240,
			"byteOffset":1704616,
			"target":34962
		},
		{
			"buffer":0,
			"byteLength":38880,
			"byteOffset":1731856,
			"target":34963
		},
		{
			"buffer":0,
			"byteLength":125508,
			"byteOffset":1770736,
			"target":34962
		},
		{
			"buffer":0,
			"byteLength":125508,
			"byteOffset":1896244,
			"target":34962
		},
		{
			"buffer":0,
			"byteLength":83672,
			"byteOffset":2021752,
			"target":34962
		},
		{
			"buffer":0,
			"byteLength":119712,
			"byteOffset":2105424,
			"target":34963
		},
		{
			"buffer":0,
			"byteLength":33024,
			"byteOffset":2225136,
			"target":34962
		},
		{
			"buffer":0,
			"byteLength":33024,
			"byteOffset":2258160,
			"target":34962
		},
		{
			"buffer":0,
			"byteLength":22016,
			"byteOffset":2291184,
			"target":34962
		},
		{
			"buffer":0,
			"byteLength":22752,
			"byteOffset":2313200,
			"target":34963
		}
	],
	"samplers":[
		{
			"magFilter":9729,
			"minFilter":9987
		}
	],
	"buffers":[
		{
			"byteLength":2335952,
			"uri":"data:application/octet-stream;base64,"
		}
	]
}
